# xmcd CD Database Entry
#
# Track frame offsets:
# 150
# 11348
# 26535
# 40086
# 65226
# 86567
# 102632
# 115374
# 126508
# 141415
# 159204
# 181979
# 200115
# 222618
#
# Disc length: 3210 seconds
#
# Revision: 1
# Processed by: cddbd v1.4PL0 Copyright (c) Steve Scherf et al.
# Submitted via: tcd 2.0b
#
DISCID=d40c880e
DTITLE=Eva Cassidy - Live
DYEAR=1900
DGENRE=
TTITLE0=Don't I Wish I Was A Single GirlAgain
TTITLE1=Ain't No Sunshine
TTITLE2=At Last
TTITLE3=Bridge Over Troubled Water
TTITLE4=Fields Of Gold
TTITLE5=wandered By A Brookside
TTITLE6=Kathy's Song
TTITLE7=Do Lord
TTITLE8=People Get Ready
TTITLE9=Time After Time
TTITLE10=Had I A Golden Thread
TTITLE11=I Know You By Heart
TTITLE12=Over The Rainbow
TTITLE13=Wade In The Water
EXTD=
EXTT0=
EXTT1=
EXTT2=
EXTT3=
EXTT4=
EXTT5=
EXTT6=
EXTT7=
EXTT8=
EXTT9=
EXTT10=
EXTT11=
EXTT12=
EXTT13=
PLAYORDER=
